<svg id="Layer_1" enable-background="new 0 0 256 256" height="512" viewBox="0 0 256 256" width="512" xmlns="http://www.w3.org/2000/svg"><path d="m243.15 189.818h-230.3c-4.888 0-8.85-3.962-8.85-8.85v-141.796c0-4.888 3.962-8.85 8.85-8.85h230.3c4.888 0 8.85 3.962 8.85 8.85v141.796c0 4.888-3.962 8.85-8.85 8.85z" fill="#f4efed"/><path d="m243.15 30.322h-10c4.888 0 8.85 3.962 8.85 8.85v141.796c0 4.888-3.962 8.85-8.85 8.85h10c4.888 0 8.85-3.962 8.85-8.85v-141.796c0-4.888-3.962-8.85-8.85-8.85z" fill="#d6d1cf"/><path d="m12.85 189.818h10c-4.888 0-8.85-3.962-8.85-8.85v-141.796c0-4.888 3.962-8.85 8.85-8.85h-10c-4.888 0-8.85 3.962-8.85 8.85v141.796c0 4.888 3.962 8.85 8.85 8.85z" fill="#fff"/><path d="m243.15 191.818h-230.3c-5.983 0-10.85-4.867-10.85-10.851v-141.795c0-5.982 4.867-10.85 10.85-10.85h230.3c5.983 0 10.85 4.867 10.85 10.85v141.796c0 5.983-4.867 10.85-10.85 10.85zm-230.3-159.496c-3.777 0-6.85 3.072-6.85 6.85v141.796c0 3.777 3.073 6.851 6.85 6.851h230.3c3.777 0 6.85-3.073 6.85-6.851v-141.796c0-3.777-3.073-6.85-6.85-6.85z" fill="#690589"/><path d="m208.901 225.678h-161.802v-11.854c0-4.888 3.962-8.85 8.85-8.85h144.102c4.888 0 8.85 3.962 8.85 8.85z" fill="#7bac51"/><path d="m200.051 204.974h-10c4.888 0 8.85 3.962 8.85 8.85v11.855h10v-11.855c0-4.888-3.962-8.85-8.85-8.85z" fill="#5d8e33"/><path d="m55.949 204.974h10c-4.888 0-8.85 3.962-8.85 8.85v11.855h-10v-11.855c0-4.888 3.962-8.85 8.85-8.85z" fill="#99ca6f"/><path d="m80.503 189.818h94.993v15.156h-94.993z" fill="#5d8e33"/><path d="m208.901 227.678h-161.802c-1.104 0-2-.896-2-2v-11.854c0-5.983 4.867-10.851 10.85-10.851h144.102c5.983 0 10.85 4.867 10.85 10.851v11.854c0 1.104-.896 2-2 2zm-159.802-4h157.802v-9.854c0-3.777-3.073-6.851-6.85-6.851h-144.102c-3.777 0-6.85 3.073-6.85 6.851z" fill="#690589"/><path d="m175.497 206.974h-94.994c-1.104 0-2-.896-2-2v-15.155c0-1.104.896-2 2-2h94.993c1.104 0 2 .896 2 2v15.155c.001 1.104-.895 2-1.999 2zm-92.994-4h90.993v-11.155h-90.993z" fill="#690589"/><path d="m12 67.526c-1.104 0-2-.896-2-2v-12c0-1.104.896-2 2-2s2 .896 2 2v12c0 1.105-.896 2-2 2z" fill="#690589"/><path d="m217.78 168.465h-74.138c-2.761 0-5-2.239-5-5v-37.852c0-2.761 2.239-5 5-5h74.138c2.761 0 5 2.239 5 5v37.852c0 2.762-2.239 5-5 5z" fill="#ff4397"/><path d="m217.78 120.613h-7.761c2.761 0 5 2.238 5 5v37.852c0 2.761-2.239 5-5 5h7.761c2.761 0 5-2.239 5-5v-37.852c0-2.761-2.239-5-5-5z" fill="#e12579"/><path d="m143.641 168.465h7.761c-2.761 0-5-2.238-5-5v-37.852c0-2.761 2.239-5 5-5h-7.761c-2.761 0-5 2.239-5 5v37.852c0 2.762 2.239 5 5 5z" fill="#ff61b5"/><path d="m112.193 144.006-6.313-.01-13.746-.018c.013-.221 0-.44 0-.664v-21.658h-23.735v21.628c0 .224-.012.443 0 .664l-13.775-.017-6.313-.01c-8.301-.011-15.04 6.71-15.05 15.012l-.039 30.886h93.945l.039-30.762c.01-8.302-6.711-15.041-15.013-15.051z" fill="#7bac51"/><path d="m48.232 144.006 6.314-.01 8.2-.01v.018l-1.604.003c-8.301.01-15.022 6.749-15.012 15.05l.039 30.763h-12.909l-.039-30.763c-.011-8.302 6.71-15.041 15.011-15.051z" fill="#99ca6f"/><path d="m112.193 144.006-6.314-.01-8.2-.01v.018l1.604.003c8.301.01 15.022 6.749 15.012 15.05l-.039 30.763h12.909l.039-30.763c.011-8.302-6.709-15.041-15.011-15.051z" fill="#5d8e33"/><path d="m68.399 121.656h23.735v22.818c0 6.554-5.313 11.867-11.867 11.867-6.554 0-11.868-5.313-11.868-11.867z" fill="#ff9f70"/><path d="m80.267 158.342c-7.646 0-13.868-6.221-13.868-13.867v-22.818c0-1.104.896-2 2-2h23.735c1.104 0 2 .896 2 2v22.818c0 7.646-6.221 13.867-13.867 13.867zm-9.868-34.686v20.818c0 5.44 4.427 9.867 9.868 9.867s9.867-4.427 9.867-9.867v-20.818z" fill="#690589"/><path d="m127.166 191.818h-93.946c-.531 0-1.04-.211-1.415-.587-.375-.375-.585-.885-.585-1.416l.04-30.887c.012-9.383 7.651-17.009 17.032-17.009h.021l18.086.025v-20.289c0-1.104.896-2 2-2h23.735c1.104 0 2 .896 2 2v20.324l18.062.025c4.549.006 8.824 1.782 12.036 5.003 3.213 3.222 4.979 7.501 4.973 12.05l-.039 30.763c-.002 1.105-.897 1.998-2 1.998zm-91.943-4h89.945l.037-28.766c.005-3.48-1.346-6.754-3.805-9.219-2.458-2.465-5.729-3.824-9.209-3.828l-20.059-.028c-.55-.001-1.077-.229-1.454-.63-.377-.4-.573-.939-.54-1.489.006-.094.002-.188 0-.281l-.003-.263v-19.658h-19.736l-.003 19.881c-.002.099-.005.196 0 .295.032.55-.165 1.089-.543 1.489-.378.399-.904.626-1.454.626-.001 0-.001 0-.002 0l-20.09-.027c-.005 0-.011 0-.016 0-7.178 0-13.022 5.835-13.031 13.015z" fill="#690589"/><path d="m80.236 136.969c-13.223 0-23.943-10.859-23.943-24.254v-16.792c0-13.395 10.72-24.254 23.943-24.254 13.224 0 23.944 10.859 23.944 24.254v16.792c0 13.395-10.72 24.254-23.944 24.254z" fill="#ff9f70"/><path d="m80.236 138.969c-14.305 0-25.943-11.777-25.943-26.254v-16.792c0-14.477 11.638-26.254 25.943-26.254 14.306 0 25.944 11.777 25.944 26.254v16.792c0 14.476-11.638 26.254-25.944 26.254zm0-65.3c-12.1 0-21.943 9.983-21.943 22.254v16.792c0 12.271 9.844 22.254 21.943 22.254 12.1 0 21.944-9.983 21.944-22.254v-16.792c0-12.271-9.844-22.254-21.944-22.254z" fill="#690589"/><path d="m217.78 43.914h-74.138c-2.761 0-5 2.239-5 5v33.615c0 2.761 2.239 5 5 5h15.338v11.731l11.732-11.732h47.069c2.761 0 5-2.239 5-5v-33.614c-.001-2.762-2.24-5-5.001-5z" fill="#ff4397"/><path d="m217.78 43.914h-8c2.761 0 5 2.239 5 5v33.615c0 2.761-2.239 5-5 5h8c2.761 0 5-2.239 5-5v-33.615c0-2.762-2.239-5-5-5z" fill="#e12579"/><path d="m143.641 87.529h8c-2.761 0-5-2.239-5-5v-33.615c0-2.762 2.239-5 5-5h-8c-2.761 0-5 2.238-5 5v33.615c0 2.761 2.239 5 5 5z" fill="#ff61b5"/><path d="m158.979 101.26c-.258 0-.518-.05-.765-.152-.748-.31-1.235-1.039-1.235-1.848v-9.731h-13.337c-3.86 0-7-3.141-7-7v-33.616c0-3.859 3.14-7 7-7h74.138c3.86 0 7 3.141 7 7v33.615c0 3.859-3.14 7-7 7h-46.241l-11.146 11.146c-.382.383-.894.586-1.414.586zm-15.337-55.347c-1.654 0-3 1.346-3 3v33.615c0 1.654 1.346 3 3 3h15.337c1.104 0 2 .896 2 2v6.903l8.317-8.317c.375-.375.884-.586 1.414-.586h47.069c1.654 0 3-1.346 3-3v-33.615c0-1.654-1.346-3-3-3z" fill="#690589"/><path d="m169.436 144.538v-11.138c0-1.124 1.183-1.855 2.188-1.351l11.367 5.696 10.859 5.442c1.112.557 1.112 2.145 0 2.702l-10.859 5.442-11.367 5.696c-1.005.504-2.188-.227-2.188-1.351z" fill="#fcc24c"/><g fill="#690589"><path d="m217.78 170.465h-74.138c-3.86 0-7-3.141-7-7v-37.852c0-3.859 3.14-7 7-7h74.138c3.86 0 7 3.141 7 7v37.852c0 3.859-3.14 7-7 7zm-74.138-47.852c-1.654 0-3 1.346-3 3v37.852c0 1.654 1.346 3 3 3h74.138c1.654 0 3-1.346 3-3v-37.852c0-1.654-1.346-3-3-3z"/><path d="m170.945 159.191c-.639 0-1.275-.177-1.842-.527-1.044-.644-1.667-1.761-1.667-2.987v-22.277c0-1.227.623-2.344 1.667-2.987 1.044-.646 2.322-.701 3.418-.151l22.225 11.138c1.196.6 1.938 1.803 1.938 3.141 0 1.337-.744 2.54-1.939 3.138l-22.224 11.139c-.501.248-1.039.373-1.576.373zm.491-25v20.693l20.646-10.347z"/><path d="m209.899 58.661h-58.377c-1.104 0-2-.896-2-2s.896-2 2-2h58.377c1.104 0 2 .896 2 2s-.896 2-2 2z"/><path d="m209.899 67.721h-58.377c-1.104 0-2-.896-2-2s.896-2 2-2h58.377c1.104 0 2 .896 2 2s-.896 2-2 2z"/><path d="m180.71 76.781h-29.188c-1.104 0-2-.896-2-2s.896-2 2-2h29.188c1.104 0 2 .896 2 2s-.895 2-2 2z"/></g></svg>